<svg width="128" height="128" viewBox="0 0 128 128" fill="none" xmlns="http://www.w3.org/2000/svg">
<rect width="128" height="128" fill="#181818"/>
<path d="M34 37C34 28.7157 40.7157 22 49 22H64V52H49C40.7157 52 34 45.2843 34 37V37Z" stroke="white" stroke-width="6"/>
<path d="M34 67C34 58.7157 40.7157 52 49 52H64V82H49C40.7157 82 34 75.2843 34 67V67Z" stroke="white" stroke-width="6"/>
<path d="M34 97C34 88.7157 40.7157 82 49 82H64V97C64 105.284 57.2843 112 49 112V112C40.7157 112 34 105.284 34 97V97Z" stroke="white" stroke-width="6"/>
<path d="M64 22H79C87.2843 22 94 28.7157 94 37V37C94 45.2843 87.2843 52 79 52H64V22Z" stroke="white" stroke-width="6"/>
<rect x="64" y="52" width="30" height="30" rx="15" stroke="white" stroke-width="6"/>
<path d="M79.8034 112.132C78.0904 112.132 76.6335 111.582 75.4648 110.481C74.2961 109.364 73.7198 107.933 73.7198 106.187C73.7198 104.426 74.3121 102.979 75.4968 101.846C76.6976 100.698 78.1384 100.132 79.8354 100.132C81.9647 100.132 83.8858 101.091 84.9264 102.538L83.3415 104.064C82.4129 102.947 81.2923 102.381 79.9635 102.381C78.8909 102.381 77.9943 102.743 77.2739 103.466C76.5535 104.174 76.1852 105.086 76.1852 106.187C76.1852 107.257 76.5375 108.137 77.2579 108.845C77.9783 109.553 78.8748 109.899 79.9475 109.899C81.3243 109.899 82.477 109.333 83.3895 108.2L85.0225 109.663C83.9338 111.125 81.9967 112.132 79.8034 112.132Z" fill="white"/>
<path d="M94.3824 107.524V100.336H96.7198V111.959H95.1028L88.9712 104.834V111.959H86.6338V100.336H88.1387L94.3824 107.524Z" fill="white"/>
</svg>
