<svg width="128" height="128" viewBox="0 0 128 128" fill="none" xmlns="http://www.w3.org/2000/svg">
<rect width="128" height="128" fill="#181818"/>
<path d="M34 37C34 28.7157 40.7157 22 49 22H64V52H49C40.7157 52 34 45.2843 34 37V37Z" stroke="white" stroke-width="6"/>
<path d="M34 67C34 58.7157 40.7157 52 49 52H64V82H49C40.7157 82 34 75.2843 34 67V67Z" stroke="white" stroke-width="6"/>
<path d="M34 97C34 88.7157 40.7157 82 49 82H64V97C64 105.284 57.2843 112 49 112V112C40.7157 112 34 105.284 34 97V97Z" stroke="white" stroke-width="6"/>
<path d="M64 22H79C87.2843 22 94 28.7157 94 37V37C94 45.2843 87.2843 52 79 52H64V22Z" stroke="white" stroke-width="6"/>
<rect x="64" y="52" width="30" height="30" rx="15" stroke="white" stroke-width="6"/>
<path d="M84.04 112.132C82.756 112.132 81.664 111.712 80.788 110.872C79.912 110.02 79.48 108.928 79.48 107.596C79.48 106.252 79.924 105.148 80.812 104.284C81.712 103.408 82.792 102.976 84.064 102.976C85.66 102.976 87.1 103.708 87.88 104.812L86.692 105.976C85.996 105.124 85.156 104.692 84.16 104.692C83.356 104.692 82.684 104.968 82.144 105.52C81.604 106.06 81.328 106.756 81.328 107.596C81.328 108.412 81.592 109.084 82.132 109.624C82.672 110.164 83.344 110.428 84.148 110.428C85.18 110.428 86.044 109.996 86.728 109.132L87.952 110.248C87.136 111.364 85.684 112.132 84.04 112.132Z" fill="white"/>
<path d="M94.9678 108.616V103.132H96.7198V112H95.5078L90.9118 106.564V112H89.1598V103.132H90.2878L94.9678 108.616Z" fill="white"/>
</svg>
